<svg width="129" height="50" viewBox="0 0 129 50" fill="none" xmlns="http://www.w3.org/2000/svg">
<path d="M30.0794 50C28.5099 50 26.9643 49.4811 25.6915 48.4817L25.5049 48.3376C23.0837 46.4398 22.141 43.2111 23.165 40.3043L26.2513 31.5359C27.1318 29.0375 25.9882 27.0004 24.6244 25.9338C23.2607 24.8623 21.0213 24.2378 18.8154 25.6984L11.0541 30.8393C8.49893 32.5305 5.15898 32.396 2.74255 30.5077C0.881179 29.052 -0.138028 26.7698 0.0150928 24.4059C0.163428 22.0469 1.46496 19.9136 3.48902 18.7077L32.5963 1.35345C35.9936 -0.674094 40.2044 -0.405037 43.3195 2.0357C46.4345 4.47643 47.7217 8.5123 46.5877 12.3127L45.535 15.8489C45.3627 16.4207 44.7646 16.7426 44.1951 16.5744C43.6257 16.4014 43.3004 15.8009 43.4726 15.2291L44.5253 11.6929C45.401 8.75253 44.4057 5.62954 41.994 3.73653C39.5824 1.84832 36.3238 1.63692 33.692 3.20802L4.58 20.5622C3.1445 21.4175 2.25927 22.8636 2.154 24.5356C2.04873 26.2124 2.74255 27.7643 4.05843 28.7925C5.74276 30.1138 8.07785 30.2051 9.86266 29.0279L17.624 23.887C20.227 22.167 23.4904 22.2967 25.9451 24.2233C28.3998 26.15 29.3137 29.3018 28.2754 32.2518L25.1891 41.0202C24.4761 43.0526 25.1316 45.3059 26.8208 46.6272L27.0074 46.7713C28.328 47.8043 29.998 48.1022 31.5866 47.5929C33.1753 47.0836 34.3619 45.868 34.8404 44.2633L35.9554 40.5109C36.1228 39.9392 36.7257 39.6125 37.2952 39.7854C37.8646 39.9584 38.19 40.559 38.0177 41.1307L36.9028 44.8831C36.2281 47.1509 34.4864 48.9334 32.2422 49.6541C31.5388 49.8895 30.8067 50 30.0794 50Z" fill="url(#paint0_linear)"/>
<path d="M48.9333 31.6709V31.7333C48.9333 35.1206 46.5551 37.1433 42.5692 37.1433C40.7365 37.1433 38.8799 36.6677 37.21 35.7692C36.7123 35.5001 36.3487 35.0341 36.2099 34.4912C36.0711 33.9483 36.162 33.3957 36.4635 32.9297C37.0138 32.0745 38.1287 31.7718 38.9996 32.2426C40.2915 32.9393 41.5691 33.3093 42.6936 33.3093C43.8611 33.3093 44.5071 32.9201 44.5071 32.2186V32.1561C44.5071 31.3682 43.3348 31.0174 41.8514 30.5802C41.6457 30.5178 41.4399 30.4553 41.2246 30.3929C36.8559 29.1052 36.2673 27.1209 36.2673 25.3528V25.2904C36.2673 22.1097 38.7125 19.9717 42.3539 19.9717C43.7846 19.9717 45.2919 20.2936 46.713 20.9086C47.2202 21.1248 47.6126 21.5572 47.7944 22.0809C47.9763 22.6094 47.9236 23.1956 47.6557 23.6856C47.1532 24.6033 46.067 24.9685 45.1244 24.5505C44.0286 24.0652 43.0381 23.8058 42.263 23.8058C41.2964 23.8058 40.6935 24.1853 40.6935 24.8051V24.8676C40.6935 25.5979 41.9519 26.0255 43.4066 26.5204L43.9138 26.6933C46.3446 27.5053 48.9333 28.6248 48.9333 31.6709Z" fill="#010101"/>
<path d="M66.1925 23.5558L60.9624 37.5468C59.6944 40.9292 58.3355 42.2024 55.5219 42.2024C54.7228 42.2024 54.0146 42.1064 53.3686 41.9286C52.2394 41.6211 51.6747 40.3383 52.1676 39.2717C52.5456 38.4549 53.4404 38.008 54.3113 38.2098C54.5266 38.2579 54.7371 38.2867 54.9285 38.2867H54.9525C55.9334 38.2819 56.6033 37.297 56.2492 36.3793L51.2728 23.5798C50.6986 22.1 51.7848 20.5049 53.3638 20.5049H53.4308C54.3974 20.5049 55.2539 21.1247 55.5602 22.0472L57.4311 27.6637C57.8713 28.985 59.7327 28.9706 60.1586 27.6445L61.9386 22.0712C62.2352 21.1391 63.1013 20.5049 64.0775 20.5049C65.6565 20.5049 66.7427 22.0808 66.1925 23.5558Z" fill="#010101"/>
<path d="M84.6292 26.3712V34.784C84.6292 36.0861 83.5765 37.1431 82.2798 37.1431C80.9831 37.1431 79.9304 36.0861 79.9304 34.784V27.8606C79.9304 25.6265 78.8776 24.4782 77.0881 24.4782C75.2985 24.4782 74.1501 25.6265 74.1501 27.8606V34.784C74.1501 36.0861 73.0974 37.1431 71.8006 37.1431C70.5039 37.1431 69.4512 36.0861 69.4512 34.784V22.8686C69.4512 21.5666 70.5039 20.5096 71.8006 20.5096C72.5806 20.5096 73.2696 20.8891 73.6955 21.4753C74.0639 21.9798 74.8056 21.9942 75.2793 21.5858C76.0832 20.8987 77.3177 20.1973 79.0021 20.1973C82.5621 20.1973 84.634 22.5515 84.6292 26.3712Z" fill="#010101"/>
<path d="M103.047 23.6086L98.4291 35.4711C97.9554 36.6915 96.783 37.4939 95.4815 37.4939C94.1752 37.4939 93.0076 36.6915 92.5339 35.4711L87.9164 23.6086C87.3326 22.1143 88.4332 20.5 90.0314 20.5H90.1175C91.0936 20.5 91.9597 21.1294 92.2708 22.0567L93.9407 27.1015C94.6298 29.1723 96.4146 29.1723 97.1084 27.1015L98.7879 22.0519C99.099 21.1246 99.9651 20.5 100.936 20.5C102.53 20.5048 103.626 22.1192 103.047 23.6086Z" fill="#010101"/>
<path d="M111.004 23.368V34.779C111.004 36.081 109.951 37.138 108.654 37.138C107.357 37.138 106.305 36.081 106.305 34.779V23.368C106.305 22.066 107.357 21.009 108.654 21.009C109.951 21.009 111.004 22.066 111.004 23.368ZM106.314 16.7713C106.314 15.4741 107.362 14.4219 108.654 14.4219C109.946 14.4219 110.994 15.4741 110.994 16.7713C110.994 18.0686 109.946 19.1208 108.654 19.1208C107.362 19.1208 106.314 18.0686 106.314 16.7713Z" fill="#010101"/>
<path d="M113.76 32.055V31.9925C113.76 28.3602 116.511 26.6882 120.435 26.6882C121.248 26.6882 121.957 26.7603 122.602 26.8708C123.847 27.0774 124.636 25.982 123.847 25.1123C123.239 24.4397 122.296 24.0457 120.933 24.0457C119.856 24.0457 118.971 24.1706 118.109 24.3868C117.109 24.6415 116.08 24.0986 115.76 23.1136C115.42 22.071 116.004 20.9612 117.047 20.6393C118.325 20.2453 119.746 20.0146 121.612 20.0146C124.177 20.0146 126.033 20.6969 127.206 21.8788C128.44 23.1184 129 24.949 129 27.1831V34.7215C129 35.8842 128.057 36.8307 126.899 36.8307H126.249C125.459 36.8307 125.014 36.4079 124.765 35.9755C124.536 35.5767 124.004 35.5143 123.641 35.7978C122.588 36.629 121.234 37.1382 119.449 37.1382C116.325 37.143 113.76 35.3413 113.76 32.055ZM121.708 29.5085C119.794 29.5085 118.617 30.234 118.617 31.6946C118.617 33.1552 119.626 33.8375 121.057 33.6741C122.866 33.4723 123.89 32.4057 124.115 31.1613C124.325 30.0274 123.119 29.5085 121.708 29.5085Z" fill="#010101"/>
<defs>
<linearGradient id="paint0_linear" x1="23.5004" y1="-0.000921981" x2="23.5004" y2="49.9991" gradientUnits="userSpaceOnUse">
<stop stop-color="#7FC344"/>
<stop offset="1" stop-color="#00AE4D"/>
</linearGradient>
</defs>
</svg>
